<svg width="384" height="130" viewBox="0 0 384 130" fill="none" xmlns="http://www.w3.org/2000/svg">
<path d="M89.3362 41.0135H98.5841C95.5292 37.1073 92.2892 33.8177 89.3362 31.2174V41.0135Z" fill="url(#paint0_linear)"/>
<path d="M0 74.4385C0 105.124 24.8482 130 55.5 130C87.9567 130 111.011 101.496 111 74.4385C110.998 69.8049 110.32 65.42 109.161 61.3156C108.952 61.4446 108.706 61.5202 108.442 61.5202H89.3362V80.2591C89.3362 81.2357 88.5456 82.027 87.5703 82.027H74.2534C71.2705 82.027 68.8522 79.6062 68.8522 76.6198V61.5202H53.7695C50.7863 61.5202 48.3683 59.0993 48.3683 56.113V42.7813C48.3683 41.8052 49.157 41.0135 50.1341 41.0135H68.8522V20.5115C65.0646 19.5799 60.5407 18.8768 55.5 18.8768C24.8482 18.8768 0 43.7524 0 74.4385Z" fill="url(#paint1_linear)"/>
<path d="M23.4344 28.8768C14.3812 34.8473 5.37528 45.8314 6.35734 54.3052C6.59985 56.3935 7.26852 59.1631 9.10949 61.3456C10.7202 63.2527 11.8056 63.149 14.6145 65.9374C16.7806 68.0894 18.1274 69.466 18.2828 71.4483C18.4335 73.3528 17.3104 73.6475 17.0608 76.3464C16.8324 78.7954 17.5552 80.7284 17.9767 81.8549C18.1862 82.4159 19.1681 84.9026 21.9511 87.6722C25.4027 91.1018 26.7683 90.1401 28.3741 92.2638C30.8604 95.5543 27.9008 98.3027 29.29 106.345C30.3186 112.302 32.6098 114.663 33.5728 115.528C34.8371 116.667 37.4529 118.496 38.7691 117.671C40.6574 116.488 37.42 111.375 39.9934 107.875C41.7616 105.471 44.3469 106.449 45.8019 103.896C47.1626 101.511 45.2816 99.9951 46.4141 97.1619C47.6243 94.1354 50.2448 94.6751 52.8348 91.3446C55.1822 88.3298 56.4348 83.5117 54.6712 81.5485C53.8608 80.6481 52.7611 80.7355 51.4748 80.8232C50.1521 80.9132 48.6318 81.0035 47.0263 80.0187C43.7255 77.9942 45.0485 74.4843 42.1336 72.6716C40.2329 71.4922 38.0684 72.1074 35.9505 72.723C33.7736 73.3557 31.6454 73.9883 29.9021 72.6716C28.0021 71.2362 28.4282 68.9286 26.5399 68.3864C25.4171 68.0635 24.3526 68.6148 23.4188 69.1662C22.4589 69.7331 21.6379 70.2997 21.0352 69.9162C19.8391 69.1549 21.977 66.1401 20.423 63.182C19.2599 60.9663 17.3716 61.0087 16.7545 58.8968C16.3215 57.4189 16.7006 55.5403 17.6706 54.3052C18.9486 52.678 20.8397 52.692 23.4104 52.7056C25.722 52.7181 28.5829 52.7306 32.0423 51.5497C34.1755 50.8211 37.0009 49.8573 39.3813 47.2645C42.4562 43.9151 41.6392 41.2798 44.886 38.9982C47.4077 37.228 49.0323 38.0223 50.6945 35.9386C52.086 34.1944 52.7053 31.4319 51.6128 30.1213C50.9653 29.3482 50.1718 29.6216 47.3323 29.2044C47.3323 29.2044 44.0973 28.7259 40.2995 27.3659C37.2764 26.2863 36.8502 25.6782 35.4069 25.2233C35.1166 25.1321 34.5073 24.9605 33.5424 24.9605C31.6426 24.9605 28.3651 25.6256 23.4344 28.8768Z" fill="#83BF04"/>
<path d="M70.6172 -2.67029e-05C69.642 -2.67029e-05 68.8513 0.791487 68.8513 1.7678V18.7389C68.8513 19.7154 69.642 20.5067 70.6172 20.5067H87.5694C88.5449 20.5067 89.3353 19.7154 89.3353 18.7389V6.01057C89.3353 2.69107 86.6472 -2.67029e-05 83.3314 -2.67029e-05H70.6172Z" fill="url(#paint2_linear)"/>
<path d="M89.3353 40.7127C90.6246 39.6563 91.5231 38.5032 91.5236 38.5032C91.9497 38.1498 92.5652 37.5158 92.7055 36.6191C92.811 35.9438 92.6579 35.0505 91.035 33.0998C90.5055 32.4631 89.9861 31.9156 89.3353 31.3117V40.7127Z" fill="#83BF04"/>
<path d="M64.2115 31.1964C61.7659 32.1091 59.8887 35.97 61.1507 38.2675C61.8942 39.6204 63.508 40.0336 63.9761 40.1531C65.9324 40.6535 67.1631 39.8726 68.8513 39.2138V31.1754C68.7957 31.1823 68.7415 31.19 68.685 31.1964C67.4172 31.3345 66.6517 31.241 66.0657 31.1474C65.6934 31.088 65.3935 31.0286 65.0832 31.0286C64.8173 31.0286 64.5442 31.0722 64.2115 31.1964Z" fill="#83BF04"/>
<path d="M59.9022 61.5202C60.423 62.4152 61.0364 63.2138 61.7046 63.8773C62.5764 64.7438 64.562 65.7121 68.5326 67.6487C68.6416 67.7019 68.7482 67.7533 68.8523 67.8038V61.5202H59.9022Z" fill="#83BF04"/>
<path d="M108.442 61.5202H89.3362V80.2591C89.3362 81.2357 88.5455 82.027 87.5703 82.027H87.4218C88.8959 84.6209 91.1997 86.0517 92.0773 90.9839C92.5001 93.3613 92.2861 94.8359 93.2543 98.2909C94.0517 101.136 94.5782 103.014 95.8444 103.477C98.9359 104.606 104.405 96.5132 104.791 95.9338C111.137 86.4097 111.051 76.072 110.986 72.9917C110.986 72.9917 110.873 67.7446 109.128 61.3354C108.926 61.4523 108.692 61.5202 108.442 61.5202Z" fill="#83BF04"/>
<path d="M177.52 45.688V85H167.944V68.816H153.048V85H143.472V45.688H153.048V61.088H167.944V45.688H177.52Z" fill="#0656B0"/>
<path d="M187.793 85.448C186.113 85.448 184.732 84.9627 183.649 83.992C182.604 82.984 182.081 81.752 182.081 80.296C182.081 78.8027 182.604 77.552 183.649 76.544C184.732 75.536 186.113 75.032 187.793 75.032C189.436 75.032 190.78 75.536 191.825 76.544C192.908 77.552 193.449 78.8027 193.449 80.296C193.449 81.752 192.908 82.984 191.825 83.992C190.78 84.9627 189.436 85.448 187.793 85.448Z" fill="#0656B0"/>
<path d="M222.47 78.056H207.798L205.446 85H195.422L209.646 45.688H220.734L234.958 85H224.822L222.47 78.056ZM220.006 70.664L215.134 56.272L210.318 70.664H220.006Z" fill="#0656B0"/>
<path d="M242.647 85.448C240.967 85.448 239.585 84.9627 238.503 83.992C237.457 82.984 236.935 81.752 236.935 80.296C236.935 78.8027 237.457 77.552 238.503 76.544C239.585 75.536 240.967 75.032 242.647 75.032C244.289 75.032 245.633 75.536 246.679 76.544C247.761 77.552 248.303 78.8027 248.303 80.296C248.303 81.752 247.761 82.984 246.679 83.992C245.633 84.9627 244.289 85.448 242.647 85.448Z" fill="#0656B0"/>
<path d="M282.811 58.344C282.811 60.6213 282.289 62.712 281.243 64.616C280.198 66.4827 278.593 67.9947 276.427 69.152C274.262 70.3093 271.574 70.888 268.363 70.888H262.427V85H252.851V45.688H268.363C271.499 45.688 274.15 46.2293 276.315 47.312C278.481 48.3947 280.105 49.888 281.187 51.792C282.27 53.696 282.811 55.88 282.811 58.344ZM267.635 63.272C269.465 63.272 270.827 62.8427 271.723 61.984C272.619 61.1253 273.067 59.912 273.067 58.344C273.067 56.776 272.619 55.5627 271.723 54.704C270.827 53.8453 269.465 53.416 267.635 53.416H262.427V63.272H267.635Z" fill="#0656B0"/>
<path d="M291.157 85.448C289.477 85.448 288.095 84.9627 287.013 83.992C285.967 82.984 285.445 81.752 285.445 80.296C285.445 78.8027 285.967 77.552 287.013 76.544C288.095 75.536 289.477 75.032 291.157 75.032C292.799 75.032 294.143 75.536 295.189 76.544C296.271 77.552 296.813 78.8027 296.813 80.296C296.813 81.752 296.271 82.984 295.189 83.992C294.143 84.9627 292.799 85.448 291.157 85.448Z" fill="#0656B0"/>
<path d="M331.321 58.344C331.321 60.6213 330.799 62.712 329.753 64.616C328.708 66.4827 327.103 67.9947 324.937 69.152C322.772 70.3093 320.084 70.888 316.873 70.888H310.937V85H301.361V45.688H316.873C320.009 45.688 322.66 46.2293 324.825 47.312C326.991 48.3947 328.615 49.888 329.697 51.792C330.78 53.696 331.321 55.88 331.321 58.344ZM316.145 63.272C317.975 63.272 319.337 62.8427 320.233 61.984C321.129 61.1253 321.577 59.912 321.577 58.344C321.577 56.776 321.129 55.5627 320.233 54.704C319.337 53.8453 317.975 53.416 316.145 53.416H310.937V63.272H316.145Z" fill="#0656B0"/>
<path d="M339.667 85.448C337.987 85.448 336.605 84.9627 335.523 83.992C334.477 82.984 333.955 81.752 333.955 80.296C333.955 78.8027 334.477 77.552 335.523 76.544C336.605 75.536 337.987 75.032 339.667 75.032C341.309 75.032 342.653 75.536 343.699 76.544C344.781 77.552 345.323 78.8027 345.323 80.296C345.323 81.752 344.781 82.984 343.699 83.992C342.653 84.9627 341.309 85.448 339.667 85.448Z" fill="#0656B0"/>
<path d="M383.583 45.688L369.975 72.008V85H360.399V72.008L346.791 45.688H357.655L365.271 62.152L372.831 45.688H383.583Z" fill="#0656B0"/>
<defs>
<linearGradient id="paint0_linear" x1="93.9601" y1="41.0135" x2="93.9601" y2="31.2174" gradientUnits="userSpaceOnUse">
<stop stop-color="#0658B3"/>
<stop offset="1" stop-color="#006CCF"/>
</linearGradient>
<linearGradient id="paint1_linear" x1="-6.00001" y1="323" x2="49" y2="-18" gradientUnits="userSpaceOnUse">
<stop stop-color="#172166"/>
<stop offset="1" stop-color="#006CCF"/>
</linearGradient>
<linearGradient id="paint2_linear" x1="73.5" y1="72" x2="79" y2="2" gradientUnits="userSpaceOnUse">
<stop stop-color="#172166"/>
<stop offset="1" stop-color="#006CCF"/>
</linearGradient>
</defs>
</svg>
