<svg width="275" height="295" viewBox="0 0 275 295" fill="none" xmlns="http://www.w3.org/2000/svg">
<path d="M132.767 30.1692L271.446 0.753932C272.987 0.426895 274.284 1.92878 273.736 3.40639L243.49 84.8891C242.193 88.3809 238.062 89.8604 234.844 87.9854L187.639 60.4814L179.884 89.3226C179.323 91.408 176.313 91.2476 175.977 89.1144L169.962 50.9137L132.36 33.9487C130.598 33.1538 130.876 30.5703 132.767 30.1692Z" fill="#CFE2F3"/>
<path d="M176.123 50.669L262.551 9.48535L186.037 56.4369C184.921 57.1215 184.119 58.2161 183.801 59.4859L179.074 78.396C178.805 79.4702 177.249 79.3763 177.111 78.2775L175.997 69.3616L174.428 53.6758C174.302 52.4164 174.98 51.2135 176.123 50.669Z" fill="#719BC0"/>
<path d="M209 73L179.5 90L183.111 77.0685L187.5 60L209 73Z" fill="#719BC0"/>
<path d="M55.352 226.888L56.3466 226.991C56.3576 226.885 56.3516 226.778 56.3288 226.674L55.352 226.888ZM45.7169 156.812L44.7554 156.537L45.7169 156.812ZM105.267 131.584L105.223 130.585L105.267 131.584ZM155.159 101.46C154.19 102.967 153.252 104.408 152.328 105.787L153.99 106.9C154.923 105.507 155.869 104.054 156.841 102.541L155.159 101.46ZM146.261 114.053C143.993 116.779 141.65 119.13 139.034 121.138L140.251 122.725C143.011 120.607 145.459 118.144 147.799 115.332L146.261 114.053ZM130.288 126.113C127.433 127.272 124.222 128.208 120.529 128.928L120.912 130.891C124.71 130.15 128.048 129.181 131.04 127.967L130.288 126.113ZM110.366 130.27C108.728 130.402 107.016 130.507 105.223 130.585L105.311 132.584C107.125 132.504 108.862 132.398 110.527 132.264L110.366 130.27ZM105.223 130.585C103.335 130.668 101.406 130.754 99.4533 130.853L99.5552 132.851C101.5 132.751 103.423 132.666 105.311 132.584L105.223 130.585ZM87.8907 131.671C84.0009 132.05 80.1217 132.562 76.3681 133.287L76.7476 135.251C80.4234 134.54 84.2379 134.036 88.0847 133.661L87.8907 131.671ZM65.0845 136.374C61.2687 137.806 57.7473 139.629 54.6989 141.968L55.9163 143.554C58.7742 141.362 62.1113 139.626 65.7873 138.246L65.0845 136.374ZM46.977 150.989C46.0732 152.692 45.3268 154.537 44.7554 156.537L46.6784 157.087C47.2125 155.218 47.9071 153.503 48.7436 151.927L46.977 150.989ZM44.7554 156.537C44.3377 157.998 44.0056 159.485 43.7509 160.998L45.7231 161.33C45.9662 159.887 46.2823 158.473 46.6784 157.087L44.7554 156.537ZM43.0836 170.067C43.1102 172.986 43.3395 175.992 43.7241 179.083L45.7088 178.836C45.3316 175.804 45.1093 172.877 45.0835 170.049L43.0836 170.067ZM45.1687 187.965C45.7237 190.814 46.3653 193.735 47.063 196.727L49.0107 196.273C48.3166 193.296 47.6807 190.4 47.1318 187.582L45.1687 187.965ZM49.1695 205.419C49.872 208.248 50.5961 211.133 51.3229 214.086L53.2649 213.608C52.5377 210.653 51.8113 207.759 51.1105 204.937L49.1695 205.419ZM53.3971 222.754C53.7281 224.189 54.0548 225.639 54.3751 227.102L56.3288 226.674C56.0068 225.203 55.6784 223.746 55.3459 222.304L53.3971 222.754ZM54.3573 226.785C54.1897 228.402 54.0124 229.972 53.8251 231.496L55.8102 231.74C55.9991 230.202 56.1778 228.62 56.3466 226.991L54.3573 226.785ZM52.4549 240.857C51.8769 244.197 51.2357 247.274 50.53 250.115L52.471 250.597C53.1898 247.704 53.8405 244.579 54.4256 241.198L52.4549 240.857ZM47.8089 259.097C46.6328 262.29 45.3336 265.092 43.9087 267.571L45.6428 268.568C47.1305 265.979 48.4756 263.073 49.6856 259.788L47.8089 259.097ZM38.4293 275.018C36.2747 277.303 33.9051 279.221 31.3046 280.9L32.3891 282.58C35.1109 280.824 37.6081 278.804 39.8842 276.39L38.4293 275.018ZM23.0408 285.231C20.3018 286.418 17.3687 287.507 14.2269 288.591L14.8788 290.482C18.0457 289.39 21.0316 288.281 23.8358 287.066L23.0408 285.231ZM5.22183 291.569C3.74707 292.047 2.23503 292.539 0.686585 293.05L1.31338 294.95C2.85696 294.44 4.36508 293.95 5.8396 293.471L5.22183 291.569Z" fill="#719BC0"/>
</svg>
