<svg width="373" height="332" viewBox="0 0 373 332" fill="none" xmlns="http://www.w3.org/2000/svg">
<path opacity="0.45" d="M220.5 275.276C319.841 275.276 400.373 269.611 400.373 262.623C400.373 255.635 319.841 249.97 220.5 249.97C121.159 249.97 40.6271 255.635 40.6271 262.623C40.6271 269.611 121.159 275.276 220.5 275.276Z" fill="#DBDBDB"/>
<path d="M338.776 76.4803L318.997 155.77L289.836 148.513C288.993 147.437 288.521 146.118 288.491 144.752C288.461 143.386 288.875 142.047 289.671 140.936C291.075 140.163 292.305 139.11 293.286 137.843C294.266 136.576 294.976 135.121 295.371 133.569C296.049 130.383 295.463 127.059 293.737 124.297C292.011 121.534 289.279 119.547 286.117 118.756C282.954 117.964 279.608 118.428 276.781 120.051C273.954 121.674 271.868 124.329 270.961 127.457C270.582 129.013 270.525 130.631 270.794 132.211C271.063 133.79 271.653 135.298 272.527 136.641C272.712 137.995 272.451 139.372 271.782 140.564C271.114 141.757 270.075 142.699 268.823 143.249L239.672 135.98L247.026 106.533C246.417 105.396 245.476 104.471 244.328 103.881C243.18 103.291 241.879 103.064 240.599 103.229C239.255 104.107 237.746 104.699 236.165 104.97C234.583 105.241 232.963 105.185 231.404 104.804C228.295 103.883 225.662 101.798 224.053 98.9855C222.444 96.1727 221.984 92.8485 222.769 89.7053C223.554 86.5622 225.522 83.8427 228.264 82.1134C231.007 80.3842 234.311 79.7785 237.489 80.4227C239.043 80.8173 240.5 81.5262 241.768 82.5055C243.037 83.4848 244.091 84.7137 244.865 86.1162C245.917 86.8673 247.173 87.2794 248.466 87.2971C249.759 87.3148 251.026 86.9374 252.098 86.2153L259.451 56.7681L338.776 76.4803Z" fill="#A0C156"/>
<path d="M347.21 82.2397C347.21 82.2397 335.766 97.7892 347.376 102.514C358.985 107.238 359.977 90.0144 359.977 90.0144L354.74 78.4624L347.21 82.2397Z" fill="black"/>
<path d="M351.223 93.4062L365.887 93.8798C365.887 93.8798 409.898 105.201 385.235 156.089C381.322 164.15 381.652 173.632 381.432 182.519L381.377 184.831H342.701L340.672 176.517C338.352 167.29 334.136 158.645 328.291 151.133C320.827 141.332 315.535 121.873 351.223 93.4062Z" fill="#006CCF"/>
<path d="M344.267 71.7886C344.394 75.039 344.958 78.2577 345.942 81.3584C346.084 81.719 346.295 82.0482 346.564 82.3272C346.833 82.6061 347.154 82.8292 347.509 82.9837C347.865 83.1382 348.247 83.2211 348.635 83.2275C349.023 83.2339 349.408 83.1639 349.768 83.0212C350.955 82.6236 352.002 81.8929 352.784 80.9164C353.566 79.9399 354.05 78.759 354.178 77.515L355.281 72.2291C355.39 71.1477 355.161 70.059 354.626 69.1126C354.091 68.1661 353.276 67.4083 352.293 66.9431C348.743 65.027 343.98 68.2316 344.267 71.7886Z" fill="#F4A28C"/>
<path d="M355.104 73.2202L360.44 91.633L350.077 93.8465L350.353 79.5524L355.104 73.2202Z" fill="#F4A28C"/>
<path opacity="0.31" d="M350.165 82.6801C351.428 82.1868 352.519 81.3374 353.307 80.2354C353.307 80.2354 353.594 83.7263 350.198 87.6357L350.165 82.6801Z" fill="#CE8172"/>
<path d="M342.877 63.2099C342.205 63.8322 341.695 64.6095 341.392 65.4739C341.089 66.3383 341.002 67.2636 341.139 68.1692C341.276 69.0749 341.632 69.9333 342.177 70.6697C342.723 71.4061 343.44 71.9981 344.267 72.3942C345.63 73.0774 347.086 73.5596 348.588 73.8258C354.884 75.0372 351.775 102.733 365.049 98.835C378.323 94.9366 374.056 89.1881 368.037 84.0343C362.017 78.8805 359.492 69.2777 357.21 64.4432C355.512 60.9303 346.946 59.6639 342.877 63.2099Z" fill="black"/>
<path d="M376.349 197.594L378.191 258.218L374.277 259.407L361.069 202.252L376.349 197.594Z" fill="#F4A28C"/>
<path d="M378.08 257.326C378.08 257.326 380.506 260.101 383.405 259.826C386.305 259.55 386.944 263.636 382.237 263.438C380.773 263.381 379.317 263.204 377.882 262.909C376.557 262.666 375.19 262.78 373.924 263.239C373.676 263.307 373.414 263.298 373.172 263.213C372.93 263.128 372.719 262.973 372.568 262.766C371.157 261.268 374.255 257.513 374.255 257.513L378.08 257.326Z" fill="#006CCF"/>
<path d="M345.865 197.683L331.875 256.709L335.458 258.658L359.889 205.314L345.865 197.683Z" fill="#F4A28C"/>
<path d="M332.161 255.862C332.161 255.862 329.229 258.064 326.439 257.227C323.65 256.39 322.206 260.256 326.858 261.005C328.315 261.247 329.791 261.365 331.268 261.357C332.61 261.387 333.921 261.767 335.072 262.458C335.3 262.573 335.558 262.616 335.812 262.583C336.065 262.549 336.303 262.441 336.494 262.271C338.181 261.082 335.899 256.765 335.899 256.765L332.161 255.862Z" fill="#006CCF"/>
<path opacity="0.08" d="M364.674 113.504C364.674 113.504 359.536 133.679 367.893 147.411C376.25 161.144 361.069 180.713 361.069 180.713L381.531 179.997C381.531 179.997 382.777 161.21 387.529 145.099C392.28 128.987 364.674 113.504 364.674 113.504Z" fill="black"/>
<path d="M341.863 181.385L381.531 179.997L388.675 245.884H360.44L359.977 196.681L341.863 181.385Z" fill="#0D133D"/>
<path d="M341.863 181.384L322.845 243.803L349.79 245.884L365.269 189.489L341.863 181.384Z" fill="#0D133D"/>
<path d="M369.944 96.2365C371.71 95.9494 373.52 96.0823 375.225 96.6243C376.931 97.1664 378.485 98.1023 379.76 99.3562C381.036 100.61 381.998 102.147 382.568 103.841C383.138 105.536 383.3 107.341 383.041 109.11C381.939 117.446 377.948 129.725 366.074 143.138C344.465 167.52 292.636 153.997 292.636 153.997C292.636 153.997 282.097 155.362 280.696 149.724C279.296 144.085 293.265 146.993 293.265 146.993C293.265 146.993 318.622 152.356 337.365 135.419C352.546 121.664 354.586 98.8244 369.944 96.2365Z" fill="#F4A28C"/>
<path d="M273.938 178.113C272.863 177.273 272.088 176.109 271.728 174.793C271.369 173.478 271.444 172.082 271.943 170.812C273.121 169.723 274.062 168.403 274.707 166.935C275.352 165.466 275.687 163.881 275.691 162.278C275.555 159.036 274.17 155.972 271.826 153.727C269.482 151.481 266.36 150.228 263.112 150.228C259.864 150.228 256.741 151.481 254.397 153.727C252.053 155.972 250.668 159.036 250.532 162.278C250.539 163.881 250.876 165.465 251.52 166.933C252.165 168.401 253.105 169.721 254.281 170.812C254.788 172.079 254.869 173.477 254.511 174.794C254.153 176.111 253.375 177.276 252.296 178.113H222.242V208.133C223.077 209.215 224.243 209.994 225.562 210.354C226.881 210.714 228.282 210.634 229.552 210.127C230.645 208.954 231.967 208.017 233.437 207.373C234.906 206.729 236.491 206.392 238.096 206.382C241.341 206.518 244.408 207.901 246.656 210.243C248.904 212.584 250.16 215.703 250.16 218.947C250.16 222.192 248.904 225.311 246.656 227.652C244.408 229.994 241.341 231.377 238.096 231.513C236.491 231.506 234.905 231.17 233.435 230.526C231.965 229.882 230.644 228.943 229.552 227.768C228.281 227.27 226.883 227.195 225.566 227.554C224.249 227.913 223.083 228.688 222.242 229.762V259.782H303.992V178.113H273.938Z" fill="#83BF04" fill-opacity="0.5"/>
<path d="M250.091 218.97C250.165 222.215 248.949 225.358 246.71 227.711C244.47 230.064 241.389 231.435 238.14 231.524C236.535 231.517 234.949 231.181 233.479 230.537C232.009 229.893 230.688 228.955 229.596 227.78C228.325 227.282 226.927 227.206 225.61 227.566C224.293 227.925 223.127 228.699 222.286 229.773V259.793H140.481V178.114H170.722C171.732 178.97 172.45 180.12 172.774 181.404C173.098 182.687 173.013 184.039 172.53 185.272C171.353 186.36 170.413 187.678 169.768 189.144C169.124 190.611 168.788 192.194 168.782 193.795C168.918 197.037 170.302 200.101 172.647 202.346C174.991 204.592 178.113 205.845 181.361 205.845C184.609 205.845 187.732 204.592 190.076 202.346C192.42 200.101 193.805 197.037 193.941 193.795C193.935 192.194 193.599 190.611 192.954 189.144C192.309 187.678 191.369 186.36 190.192 185.272C189.703 184.04 189.614 182.686 189.939 181.401C190.264 180.116 190.985 178.966 192 178.114H222.242V208.134C223.077 209.215 224.243 209.995 225.562 210.354C226.881 210.714 228.282 210.634 229.552 210.127C230.645 208.954 231.967 208.017 233.437 207.373C234.906 206.729 236.491 206.392 238.096 206.383C241.357 206.463 244.453 207.835 246.703 210.195C248.952 212.556 250.171 215.712 250.091 218.97Z" fill="#A0C156"/>
<path d="M122.598 254.65C122.598 254.65 125.905 257.954 129.544 256.39C133.182 254.826 135.795 257.91 133.138 260.508C130.481 263.107 120.393 263.229 120.393 263.229L117.438 256.401L122.598 254.65Z" fill="#006CCF"/>
<path d="M66.4035 253.13C66.4035 253.13 64.7608 257.623 67.506 260.553C70.2512 263.482 68.5203 267.226 65.2238 265.607C61.9273 263.988 58.0355 254.209 58.0355 254.209L62.9306 248.758L66.4035 253.13Z" fill="#006CCF"/>
<path d="M57.4513 168.687C57.4513 168.687 53.9233 183.356 60.0532 190.569C66.1831 197.782 75.5764 231.953 60.0532 249.045L66.15 255.123C66.15 255.123 93.029 240.697 85.3666 188.675L104.55 168.687H57.4513Z" fill="#0D133D"/>
<path d="M104.594 168.687L124.307 255.123L114.45 256.643C114.45 256.643 94.7378 197.407 81.7283 185.25L104.594 168.687Z" fill="#0D133D"/>
<path d="M109.148 92.6904C109.148 92.6904 129.698 101.445 126.556 133.502L106.479 131.785L109.148 92.6904Z" fill="#006CCF"/>
<path opacity="0.36" d="M109.148 92.6904C109.148 92.6904 129.698 101.445 126.556 133.502L106.479 131.785L109.148 92.6904Z" fill="white"/>
<path d="M87.792 65.2363L82.1031 85.2899L93.3928 87.6356L93.0069 72.0971L87.792 65.2363Z" fill="#F4A28C"/>
<path opacity="0.31" d="M93.2384 75.4999C91.8561 74.9714 90.6573 74.0532 89.7876 72.8569C89.7876 72.8569 89.5009 76.6562 93.2274 80.896L93.2384 75.4999Z" fill="#CE8172"/>
<path d="M82.1032 85.2899L88.7953 86.7105C88.7953 86.7105 119.445 90.0142 120.691 107.282C121.936 124.549 104.616 168.709 104.616 168.709H58.1789C58.1789 168.709 20.9475 80.7308 82.1032 85.2899Z" fill="#006CCF"/>
<path d="M144.714 120.926C145.17 124.148 146.889 127.058 149.491 129.015C152.094 130.973 155.368 131.818 158.595 131.366C160.176 131.099 161.686 130.511 163.03 129.637C164.375 128.764 165.525 127.625 166.411 126.289C167.523 125.627 168.811 125.321 170.101 125.412C171.392 125.502 172.625 125.985 173.633 126.796L178.605 156.738L148.716 161.595C147.856 162.602 147.333 163.853 147.22 165.172C147.107 166.492 147.411 167.813 148.088 168.951C149.427 169.835 150.57 170.984 151.446 172.327C152.322 173.67 152.913 175.179 153.181 176.759C153.581 179.983 152.715 183.237 150.766 185.838C148.818 188.439 145.937 190.186 142.727 190.713C139.518 191.239 136.229 190.505 133.549 188.663C130.87 186.822 129.008 184.016 128.353 180.834C128.099 179.25 128.174 177.632 128.572 176.078C128.97 174.525 129.684 173.07 130.668 171.803C130.944 170.511 130.809 169.164 130.281 167.952C129.753 166.739 128.859 165.722 127.725 165.042L97.8799 169.942L84.6499 89.3755L165.331 76.1606L170.259 106.125C169.558 107.209 168.543 108.054 167.35 108.548C166.156 109.042 164.841 109.161 163.578 108.89C162.31 107.906 160.853 107.193 159.298 106.796C157.743 106.398 156.122 106.323 154.537 106.577C152.948 106.873 151.433 107.48 150.079 108.362C148.725 109.244 147.559 110.384 146.646 111.716C145.734 113.049 145.093 114.549 144.762 116.129C144.43 117.709 144.414 119.34 144.714 120.926Z" fill="#BFDC7F"/>
<path d="M99.4896 65.787C99.4896 65.787 98.9273 72.1192 97.1302 76.0836C96.9565 76.4668 96.7087 76.8119 96.4011 77.0991C96.0935 77.3864 95.7322 77.6101 95.3378 77.7574C94.9434 77.9048 94.5237 77.9729 94.1029 77.9578C93.6821 77.9427 93.2684 77.8447 92.8856 77.6694C91.617 77.1814 90.5165 76.3376 89.7165 75.2397C88.9166 74.1417 88.4512 72.8363 88.3764 71.4804L87.4723 65.6769C87.4123 64.495 87.7217 63.3237 88.3578 62.3254C88.9939 61.327 89.9251 60.5509 91.0224 60.1046C95.0134 58.2215 100.03 61.9767 99.4896 65.787Z" fill="#F4A28C"/>
<path opacity="0.09" d="M68.355 93.3179C68.355 93.3179 84.2421 102.535 80.5487 123.382C76.8553 144.228 70.7364 151.397 83.8562 148.49C96.9759 145.583 102.345 139.008 102.345 139.008C102.345 139.008 111.771 146.717 102.345 152.521C92.9187 158.324 80.1297 158.335 78.0901 168.654H58.179C58.179 168.654 56.5693 164.139 54.4305 158.445C52.2916 152.752 68.355 93.3179 68.355 93.3179Z" fill="black"/>
<path d="M97.891 65.7871C95.9365 65.5239 94.0197 65.0323 92.18 64.3224C92.5885 65.2717 92.7102 66.3196 92.53 67.3371C92.3497 68.3546 91.8755 69.2972 91.1657 70.0489C90.4916 70.7926 89.5792 71.2786 88.5852 71.4233C87.5913 71.568 86.578 71.3624 85.7194 70.8418L87.2518 62.8027C87.4356 61.6488 87.9281 60.5658 88.6772 59.6683C89.4263 58.7709 90.4041 58.0922 91.5075 57.704C92.4629 57.3642 93.4387 57.0847 94.4291 56.867C96.9538 56.3384 100.526 57.3516 101.926 59.5981C102.522 60.5804 102.711 61.7565 102.451 62.8757C102.192 63.9948 101.505 64.9684 100.537 65.5888C99.695 65.9192 98.7728 65.9883 97.891 65.7871Z" fill="black"/>
<path d="M91.8713 69.9938C91.8713 69.9938 92.2572 67.5821 90.405 67.4389C88.5528 67.2957 87.9795 70.7426 90.405 71.5576L91.8713 69.9938Z" fill="#F4A28C"/>
<path d="M43.8795 130.198C43.8795 130.198 41.2665 156.981 54.4304 158.478C64.3529 159.58 80.3061 153.996 90.0411 151.232C94.2527 150.032 96.2923 149.47 99.5337 146.519C103.414 142.973 108.795 140.451 104.605 137.092C97.1743 131.113 91.9044 141.343 91.9044 141.343C85.6962 143.141 79.2985 144.205 72.8421 144.515C71.6324 144.545 70.4322 144.294 69.3368 143.78C68.2413 143.266 67.2809 142.505 66.5318 141.556C65.7826 140.606 65.2654 139.496 65.0211 138.312C64.7768 137.128 64.8123 135.903 65.1246 134.736L67.5832 125.507C67.5832 125.507 50.1417 109.176 43.8795 130.198Z" fill="#F4A28C"/>
<path d="M98.9273 69.7954L100.25 72.5155C100.324 72.6708 100.358 72.8422 100.348 73.014C100.339 73.1858 100.286 73.3523 100.195 73.4982C100.103 73.6442 99.9768 73.7648 99.8266 73.8491C99.6765 73.9333 99.5075 73.9784 99.3352 73.9801H96.8546L98.9273 69.7954Z" fill="#F4A28C"/>
<path d="M57.5615 91.2476C50.715 96.5005 40.4286 108.097 40.6271 129.989L68.7519 131.784C68.7519 131.784 76.8773 107.744 68.355 93.3179C67.8262 92.4242 67.1133 91.6529 66.2635 91.0553C65.4136 90.4577 64.4463 90.0474 63.4256 89.8516C62.405 89.6558 61.3543 89.6791 60.3433 89.9197C59.3323 90.1604 58.3841 90.613 57.5615 91.2476Z" fill="#006CCF"/>
<path opacity="0.36" d="M57.5615 91.2476C50.715 96.5005 40.4286 108.097 40.6271 129.989L68.7519 131.784C68.7519 131.784 76.8773 107.744 68.355 93.3179C67.8262 92.4242 67.1133 91.6529 66.2635 91.0553C65.4136 90.4577 64.4463 90.0474 63.4256 89.8516C62.405 89.6558 61.3543 89.6791 60.3433 89.9197C59.3323 90.1604 58.3841 90.613 57.5615 91.2476Z" fill="white"/>
<path d="M146.864 121.951C145.918 123.021 145.362 124.379 145.287 125.805C145.191 126.564 145.333 127.334 145.695 128.007C145.951 128.396 146.285 128.726 146.677 128.977C148.209 130.078 150.568 130.199 151.792 128.789C152.433 127.917 152.756 126.853 152.707 125.772C152.707 124.517 152.851 122.017 151.836 121.037C150.48 119.748 147.922 120.783 146.864 121.951Z" fill="#F4A28C"/>
</svg>
