<svg width="19" height="14" viewBox="0 0 19 14" fill="none" xmlns="http://www.w3.org/2000/svg">
<path d="M17.528 1.024L15.224 7.504C17.192 7.504 18.176 8.344 18.176 10.024V11.248C18.176 11.968 17.936 12.568 17.456 13.048C16.976 13.528 16.376 13.768 15.656 13.768L14.432 13.768C13.712 13.768 13.136 13.528 12.704 13.048C12.224 12.568 11.984 11.968 11.984 11.248L11.984 7.792L14.792 0.0159998L17.528 1.024ZM6.24706 1.024L3.94306 7.504C5.91106 7.504 6.89506 8.344 6.89506 10.024V11.248C6.89506 11.968 6.65506 12.568 6.17506 13.048C5.69506 13.528 5.09506 13.768 4.37506 13.768H3.15106C2.43106 13.768 1.85506 13.528 1.42306 13.048C0.943062 12.568 0.703062 11.968 0.703062 11.248V7.792L3.51106 0.0159998L6.24706 1.024Z" fill="#0656B0"/>
</svg>
