<svg width="145" height="50" viewBox="0 0 145 50" fill="none" xmlns="http://www.w3.org/2000/svg">
<path d="M33.7337 15.7744H37.2258C36.0722 14.272 34.8488 13.0068 33.7337 12.0067V15.7744Z" fill="white"/>
<path d="M0 28.6302C0 40.4325 9.38279 50 20.957 50C33.2128 50 41.9181 39.0368 41.9141 28.6302C41.9134 26.8481 41.6571 25.1616 41.2198 23.5829C41.1406 23.6325 41.0478 23.6616 40.948 23.6616H33.7337V30.8689C33.7337 31.2445 33.4352 31.5488 33.0669 31.5488H28.0384C26.9121 31.5488 25.9989 30.6178 25.9989 29.4691V23.6616H20.3036C19.1771 23.6616 18.2641 22.7305 18.2641 21.5819V16.4543C18.2641 16.0789 18.5619 15.7744 18.9309 15.7744H25.9989V7.88903C24.5687 7.53075 22.8604 7.26031 20.957 7.26031C9.38279 7.26031 0 16.8279 0 28.6302Z" fill="white"/>
<path d="M8.84893 11.1067C5.4304 13.403 2.02974 17.6277 2.40057 20.8868C2.49214 21.69 2.74463 22.7553 3.43979 23.5947C4.048 24.3282 4.45785 24.2883 5.5185 25.3608C6.33644 26.1885 6.84498 26.7179 6.90366 27.4803C6.96056 28.2128 6.53648 28.3262 6.44224 29.3642C6.356 30.3061 6.62894 31.0496 6.78808 31.4829C6.86721 31.6986 7.23795 32.6551 8.28882 33.7203C9.59218 35.0394 10.1078 34.6695 10.7142 35.4863C11.653 36.7519 10.5355 37.809 11.06 40.9022C11.4485 43.1931 12.3136 44.1015 12.6772 44.4342C13.1546 44.8721 14.1424 45.5755 14.6394 45.2582C15.3524 44.8032 14.1299 42.8368 15.1017 41.4906C15.7694 40.5658 16.7456 40.9421 17.295 39.9603C17.8088 39.0428 17.0985 38.4599 17.5262 37.3702C17.9831 36.2061 18.9727 36.4137 19.9506 35.1327C20.837 33.9732 21.31 32.1201 20.6441 31.365C20.3381 31.0187 19.9228 31.0523 19.4371 31.0861C18.9376 31.1207 18.3636 31.1554 17.7573 30.7766C16.5109 29.998 17.0105 28.648 15.9098 27.9508C15.1921 27.4972 14.3748 27.7338 13.5751 27.9706C12.7531 28.2139 11.9494 28.4573 11.2912 27.9508C10.5737 27.3987 10.7346 26.5112 10.0216 26.3027C9.5976 26.1785 9.19566 26.3905 8.84306 26.6026C8.48059 26.8206 8.17057 27.0386 7.94297 26.8911C7.49133 26.5982 8.2986 25.4387 7.71182 24.301C7.27262 23.4488 6.55959 23.4651 6.32657 22.6528C6.16307 22.0844 6.30621 21.3619 6.67251 20.8868C7.15509 20.261 7.86918 20.2663 8.83986 20.2716C9.71274 20.2764 10.793 20.2812 12.0993 19.827C12.9048 19.5468 13.9717 19.1761 14.8705 18.1789C16.0317 16.8906 15.7231 15.8771 16.9492 14.9995C17.9013 14.3187 18.5148 14.6242 19.1425 13.8228C19.6679 13.1519 19.9017 12.0894 19.4892 11.5853C19.2447 11.288 18.9451 11.3932 17.8729 11.2327C17.8729 11.2327 16.6513 11.0486 15.2173 10.5256C14.0757 10.1103 13.9148 9.87645 13.3698 9.70148C13.2602 9.6664 13.0301 9.6004 12.6658 9.6004C11.9484 9.6004 10.7108 9.85624 8.84893 11.1067Z" fill="#006CCF" fill-opacity="0.4"/>
<path d="M26.6653 0C26.2971 0 25.9985 0.304428 25.9985 0.679932V7.20728C25.9985 7.58287 26.2971 7.88721 26.6653 7.88721H33.0666C33.4349 7.88721 33.7334 7.58287 33.7334 7.20728V2.31177C33.7334 1.03504 32.7183 0 31.4662 0H26.6653Z" fill="white"/>
<path d="M33.7334 15.6587C34.2202 15.2524 34.5595 14.8089 34.5597 14.8089C34.7206 14.673 34.953 14.4291 35.006 14.0842C35.0458 13.8245 34.988 13.4809 34.3752 12.7306C34.1752 12.4858 33.9791 12.2752 33.7334 12.0429V15.6587Z" fill="#006CCF" fill-opacity="0.4"/>
<path d="M24.2466 11.9988C23.3231 12.3498 22.6143 13.8348 23.0908 14.7184C23.3716 15.2388 23.9809 15.3977 24.1577 15.4437C24.8964 15.6361 25.3611 15.3358 25.9986 15.0824V11.9907C25.9776 11.9933 25.9571 11.9963 25.9358 11.9988C25.457 12.0519 25.168 12.0159 24.9467 11.9799C24.8062 11.9571 24.6929 11.9342 24.5757 11.9342C24.4753 11.9342 24.3722 11.951 24.2466 11.9988Z" fill="#006CCF" fill-opacity="0.4"/>
<path d="M22.6193 23.6614C22.816 24.0056 23.0476 24.3128 23.2999 24.568C23.6291 24.9012 24.3788 25.2736 25.8781 26.0185C25.9193 26.039 25.9596 26.0587 25.9989 26.0781V23.6614H22.6193Z" fill="#006CCF" fill-opacity="0.4"/>
<path d="M40.948 23.6618H33.7337V30.8691C33.7337 31.2447 33.4352 31.549 33.0669 31.549H33.0108C33.5675 32.5467 34.4374 33.097 34.7688 34.994C34.9284 35.9084 34.8476 36.4755 35.2132 37.8044C35.5143 38.8988 35.7131 39.621 36.1913 39.7988C37.3586 40.2331 39.4239 37.1206 39.5697 36.8978C41.9658 33.2347 41.9335 29.2586 41.9088 28.0739C41.9088 28.0739 41.8662 26.0558 41.2074 23.5907C41.131 23.6357 41.0426 23.6618 40.948 23.6618Z" fill="#006CCF" fill-opacity="0.4"/>
<path d="M67.0323 17.5723V32.6923H63.4163V26.4677H57.7916V32.6923H54.1756V17.5723H57.7916V23.4953H63.4163V17.5723H67.0323Z" fill="white"/>
<path d="M70.9114 32.8646C70.277 32.8646 69.7554 32.6779 69.3466 32.3046C68.9519 31.9169 68.7545 31.443 68.7545 30.883C68.7545 30.3087 68.9519 29.8277 69.3466 29.44C69.7554 29.0523 70.277 28.8584 70.9114 28.8584C71.5317 28.8584 72.0392 29.0523 72.4339 29.44C72.8427 29.8277 73.0471 30.3087 73.0471 30.883C73.0471 31.443 72.8427 31.9169 72.4339 32.3046C72.0392 32.6779 71.5317 32.8646 70.9114 32.8646Z" fill="white"/>
<path d="M84.0055 30.0215H78.4652L77.5771 32.6923H73.792L79.1631 17.5723H83.3499L88.721 32.6923H84.8936L84.0055 30.0215ZM83.075 27.1784L81.2353 21.643L79.4168 27.1784H83.075Z" fill="white"/>
<path d="M91.6244 32.8646C90.99 32.8646 90.4684 32.6779 90.0596 32.3046C89.6649 31.9169 89.4675 31.443 89.4675 30.883C89.4675 30.3087 89.6649 29.8277 90.0596 29.44C90.4684 29.0523 90.99 28.8584 91.6244 28.8584C92.2447 28.8584 92.7522 29.0523 93.1469 29.44C93.5557 29.8277 93.7601 30.3087 93.7601 30.883C93.7601 31.443 93.5557 31.9169 93.1469 32.3046C92.7522 32.6779 92.2447 32.8646 91.6244 32.8646Z" fill="white"/>
<path d="M106.791 22.44C106.791 23.3159 106.593 24.12 106.199 24.8523C105.804 25.5702 105.198 26.1518 104.38 26.5969C103.562 27.042 102.547 27.2646 101.335 27.2646H99.0937V32.6923H95.4777V17.5723H101.335C102.519 17.5723 103.52 17.7805 104.338 18.1969C105.155 18.6133 105.769 19.1876 106.178 19.92C106.586 20.6523 106.791 21.4923 106.791 22.44ZM101.06 24.3353C101.751 24.3353 102.266 24.1702 102.604 23.84C102.942 23.5097 103.111 23.043 103.111 22.44C103.111 21.8369 102.942 21.3702 102.604 21.04C102.266 20.7097 101.751 20.5446 101.06 20.5446H99.0937V24.3353H101.06Z" fill="white"/>
<path d="M109.942 32.8646C109.308 32.8646 108.786 32.6779 108.377 32.3046C107.982 31.9169 107.785 31.443 107.785 30.883C107.785 30.3087 107.982 29.8277 108.377 29.44C108.786 29.0523 109.308 28.8584 109.942 28.8584C110.562 28.8584 111.07 29.0523 111.464 29.44C111.873 29.8277 112.078 30.3087 112.078 30.883C112.078 31.443 111.873 31.9169 111.464 32.3046C111.07 32.6779 110.562 32.8646 109.942 32.8646Z" fill="white"/>
<path d="M125.108 22.44C125.108 23.3159 124.911 24.12 124.516 24.8523C124.122 25.5702 123.515 26.1518 122.698 26.5969C121.88 27.042 120.865 27.2646 119.653 27.2646H117.411V32.6923H113.795V17.5723H119.653C120.837 17.5723 121.838 17.7805 122.655 18.1969C123.473 18.6133 124.086 19.1876 124.495 19.92C124.904 20.6523 125.108 21.4923 125.108 22.44ZM119.378 24.3353C120.069 24.3353 120.583 24.1702 120.921 23.84C121.26 23.5097 121.429 23.043 121.429 22.44C121.429 21.8369 121.26 21.3702 120.921 21.04C120.583 20.7097 120.069 20.5446 119.378 20.5446H117.411V24.3353H119.378Z" fill="white"/>
<path d="M128.26 32.8646C127.625 32.8646 127.104 32.6779 126.695 32.3046C126.3 31.9169 126.103 31.443 126.103 30.883C126.103 30.3087 126.3 29.8277 126.695 29.44C127.104 29.0523 127.625 28.8584 128.26 28.8584C128.88 28.8584 129.387 29.0523 129.782 29.44C130.191 29.8277 130.395 30.3087 130.395 30.883C130.395 31.443 130.191 31.9169 129.782 32.3046C129.387 32.6779 128.88 32.8646 128.26 32.8646Z" fill="white"/>
<path d="M144.843 17.5723L139.704 27.6953V32.6923H136.088V27.6953L130.95 17.5723H135.052L137.928 23.9046L140.783 17.5723H144.843Z" fill="white"/>
</svg>
